<?xml version="1.0" encoding="utf-8"?>
<!-- Generator: Adobe Illustrator 26.0.3, SVG Export Plug-In . SVG Version: 6.00 Build 0)  -->
<svg xmlns="http://www.w3.org/2000/svg"
	 viewBox="0 0 85.4 44.4" >
<path d="M0.6,10.3c0,0.8,0.7,1.5,1.5,1.5h78.2l-6.4,6.4c-0.6,0.6-0.6,1.5,0,2.1c0.3,0.3,0.7,0.4,1.1,0.4s0.8-0.1,1.1-0.4l8.9-8.9
	c0.1-0.1,0.1-0.1,0.1-0.2c0-0.1,0.1-0.1,0.1-0.2c0-0.1,0.1-0.2,0.1-0.2c0-0.1,0.1-0.3,0.1-0.4c0,0,0,0,0,0c0,0,0,0,0,0
	c0-0.5-0.3-1-0.6-1.2l-8.7-8.7c-0.6-0.6-1.5-0.6-2.1,0c-0.6,0.6-0.6,1.5,0,2.1l6.3,6.3H2.1C1.3,8.8,0.6,9.5,0.6,10.3z"/>
<path d="M84.7,34.1c0-0.8-0.7-1.5-1.5-1.5H5.1l6.4-6.4c0.6-0.6,0.6-1.5,0-2.1c-0.3-0.3-0.7-0.4-1.1-0.4s-0.8,0.1-1.1,0.4L0.4,33
	c-0.1,0.1-0.1,0.1-0.1,0.2c0,0.1-0.1,0.1-0.1,0.2c0,0.1-0.1,0.2-0.1,0.2C0,33.7,0,33.9,0,34c0,0,0,0,0,0c0,0,0,0,0,0
	c0,0.5,0.3,1,0.6,1.2L9.3,44c0.6,0.6,1.5,0.6,2.1,0c0.6-0.6,0.6-1.5,0-2.1l-6.3-6.3h78.1C84.1,35.6,84.7,34.9,84.7,34.1z"/>
</svg>
